<?xml version="1.0" encoding="utf-8"?>
<!-- Generator: Adobe Illustrator 19.0.0, SVG Export Plug-In . SVG Version: 6.00 Build 0)  -->
<svg version="1.1" id="Layer_1" xmlns="http://www.w3.org/2000/svg" xmlns:xlink="http://www.w3.org/1999/xlink" x="0px" y="0px"
	 viewBox="-300 391 11 12" style="enable-background:new -300 391 11 12;" xml:space="preserve">
<style type="text/css">
	.st0{fill:#0A6AE8;}
</style>
<path id="XMLID_184_" class="st0" d="M-289.1,402.2l-3.1-3.4c0.7-0.8,1.2-1.8,1.2-2.9c0.1-1.2-0.4-2.4-1.2-3.2
	c-0.8-0.9-1.9-1.4-3.1-1.5c-1.2-0.1-2.3,0.4-3.2,1.2s-1.4,1.9-1.5,3.1c-0.1,1.2,0.4,2.4,1.2,3.2c0.8,0.9,1.9,1.5,3.1,1.5
	c0.1,0,0.1,0,0.2,0c1,0,2-0.3,2.7-0.9l3.1,3.4c0.1,0.1,0.2,0.1,0.3,0.1s0.2,0,0.3-0.1C-289,402.6-289,402.3-289.1,402.2z
	 M-293,398.5c-0.7,0.7-1.7,1-2.7,1s-1.9-0.5-2.6-1.2c-1.4-1.6-1.3-4,0.3-5.4c0.7-0.6,1.6-1,2.5-1c0.1,0,0.1,0,0.2,0
	c1,0,1.9,0.5,2.6,1.2c0.7,0.7,1,1.7,1,2.7C-291.8,396.9-292.2,397.8-293,398.5z"/>
</svg>
