<?xml version="1.0" encoding="utf-8"?>
<!-- Generator: Adobe Illustrator 19.0.0, SVG Export Plug-In . SVG Version: 6.00 Build 0)  -->
<svg version="1.1" id="Layer_1" xmlns="http://www.w3.org/2000/svg" xmlns:xlink="http://www.w3.org/1999/xlink" x="0px" y="0px"
	 viewBox="0 0 11 12" style="enable-background:new 0 0 11 12;" xml:space="preserve">
<style type="text/css">
	.st0{fill:#C5C5C5;}
</style>
<path id="XMLID_184_" class="st0" d="M10.9,11L7.8,7.6C8.5,6.8,9,5.8,9,4.7c0.1-1.2-0.4-2.4-1.2-3.2C7,0.6,5.9,0.1,4.7,0
	C3.5-0.1,2.4,0.4,1.5,1.2C0.6,2,0.1,3.1,0,4.3c-0.1,1.2,0.4,2.4,1.2,3.2C2,8.4,3.1,9,4.3,9c0.1,0,0.1,0,0.2,0c1,0,2-0.3,2.7-0.9
	l3.1,3.4c0.1,0.1,0.2,0.1,0.3,0.1c0.1,0,0.2,0,0.3-0.1C11,11.4,11,11.1,10.9,11z M7,7.3c-0.7,0.7-1.7,1-2.7,1c-1,0-1.9-0.5-2.6-1.2
	C0.3,5.5,0.4,3.1,2,1.7c0.7-0.6,1.6-1,2.5-1c0.1,0,0.1,0,0.2,0c1,0,1.9,0.5,2.6,1.2c0.7,0.7,1,1.7,1,2.7C8.2,5.7,7.8,6.6,7,7.3z"/>
</svg>
